<mxfile host="app.diagrams.net" modified="2022-11-20T03:49:45.326Z" agent="5.0 (Windows NT 10.0; Win64; x64) AppleWebKit/537.36 (KHTML, like Gecko) Chrome/107.0.0.0 Safari/537.36" etag="4gm4aprnY18OWNpMAzIX" version="20.5.3" type="github">
  <diagram id="mxi-QQqQCjpOZMrSMPo4" name="페이지-1">
    <mxGraphModel dx="981" dy="518" grid="1" gridSize="10" guides="1" tooltips="1" connect="1" arrows="1" fold="1" page="1" pageScale="1" pageWidth="827" pageHeight="1169" math="0" shadow="0">
      <root>
        <mxCell id="0" />
        <mxCell id="1" parent="0" />
        <mxCell id="su87Lg4oOUZ0kRwfVffA-1" value="" style="whiteSpace=wrap;html=1;aspect=fixed;" parent="1" vertex="1">
          <mxGeometry x="170" y="110" width="380" height="380" as="geometry" />
        </mxCell>
        <mxCell id="su87Lg4oOUZ0kRwfVffA-2" value="사용자" style="shape=umlActor;verticalLabelPosition=bottom;verticalAlign=top;html=1;outlineConnect=0;" parent="1" vertex="1">
          <mxGeometry x="65" y="170" width="30" height="60" as="geometry" />
        </mxCell>
        <mxCell id="su87Lg4oOUZ0kRwfVffA-6" value="&amp;lt;&amp;lt;actor&amp;gt;&amp;gt;&lt;br&gt;Bluetooth" style="rounded=0;whiteSpace=wrap;html=1;" parent="1" vertex="1">
          <mxGeometry x="590" y="165" width="100" height="40" as="geometry" />
        </mxCell>
        <mxCell id="su87Lg4oOUZ0kRwfVffA-8" value="&amp;lt;&amp;lt;actor&amp;gt;&amp;gt;&lt;br&gt;Wi-Fi" style="rounded=0;whiteSpace=wrap;html=1;" parent="1" vertex="1">
          <mxGeometry x="30" y="390" width="100" height="40" as="geometry" />
        </mxCell>
        <mxCell id="su87Lg4oOUZ0kRwfVffA-9" value="&amp;lt;&amp;lt;actor&amp;gt;&amp;gt;&lt;br&gt;GPS" style="rounded=0;whiteSpace=wrap;html=1;" parent="1" vertex="1">
          <mxGeometry x="30" y="310" width="100" height="40" as="geometry" />
        </mxCell>
        <mxCell id="su87Lg4oOUZ0kRwfVffA-11" value="위치 및&amp;nbsp; 알림 허용" style="ellipse;whiteSpace=wrap;html=1;" parent="1" vertex="1">
          <mxGeometry x="210" y="155" width="120" height="50" as="geometry" />
        </mxCell>
        <mxCell id="su87Lg4oOUZ0kRwfVffA-12" value="기본 실시간 알림" style="ellipse;whiteSpace=wrap;html=1;" parent="1" vertex="1">
          <mxGeometry x="210" y="260" width="120" height="50" as="geometry" />
        </mxCell>
        <mxCell id="su87Lg4oOUZ0kRwfVffA-13" value="블루투스 실시간 알림" style="ellipse;whiteSpace=wrap;html=1;" parent="1" vertex="1">
          <mxGeometry x="390" y="260" width="120" height="50" as="geometry" />
        </mxCell>
        <mxCell id="su87Lg4oOUZ0kRwfVffA-14" value="" style="ellipse;whiteSpace=wrap;html=1;" parent="1" vertex="1">
          <mxGeometry x="210" y="365" width="130" height="80" as="geometry" />
        </mxCell>
        <mxCell id="su87Lg4oOUZ0kRwfVffA-19" value="" style="endArrow=none;html=1;rounded=0;entryX=0;entryY=0.5;entryDx=0;entryDy=0;" parent="1" target="su87Lg4oOUZ0kRwfVffA-11" edge="1">
          <mxGeometry width="50" height="50" relative="1" as="geometry">
            <mxPoint x="100" y="190" as="sourcePoint" />
            <mxPoint x="150" y="140" as="targetPoint" />
          </mxGeometry>
        </mxCell>
        <mxCell id="su87Lg4oOUZ0kRwfVffA-22" value="" style="endArrow=none;html=1;rounded=0;entryX=0.219;entryY=0.068;entryDx=0;entryDy=0;entryPerimeter=0;" parent="1" target="su87Lg4oOUZ0kRwfVffA-14" edge="1">
          <mxGeometry width="50" height="50" relative="1" as="geometry">
            <mxPoint x="100" y="230" as="sourcePoint" />
            <mxPoint x="230" y="380" as="targetPoint" />
          </mxGeometry>
        </mxCell>
        <mxCell id="su87Lg4oOUZ0kRwfVffA-25" value="실시간 알림" style="ellipse;whiteSpace=wrap;html=1;" parent="1" vertex="1">
          <mxGeometry x="390" y="155" width="120" height="50" as="geometry" />
        </mxCell>
        <mxCell id="su87Lg4oOUZ0kRwfVffA-32" value="" style="endArrow=block;html=1;rounded=0;exitX=0.687;exitY=-0.001;exitDx=0;exitDy=0;endFill=0;entryX=0.089;entryY=0.816;entryDx=0;entryDy=0;entryPerimeter=0;exitPerimeter=0;" parent="1" source="su87Lg4oOUZ0kRwfVffA-12" target="su87Lg4oOUZ0kRwfVffA-25" edge="1">
          <mxGeometry width="50" height="50" relative="1" as="geometry">
            <mxPoint x="340" y="280" as="sourcePoint" />
            <mxPoint x="320" y="290" as="targetPoint" />
            <Array as="points" />
          </mxGeometry>
        </mxCell>
        <mxCell id="su87Lg4oOUZ0kRwfVffA-33" value="" style="endArrow=block;html=1;rounded=0;entryX=0.673;entryY=0.954;entryDx=0;entryDy=0;exitX=0.759;exitY=0.081;exitDx=0;exitDy=0;endFill=0;exitPerimeter=0;entryPerimeter=0;" parent="1" source="su87Lg4oOUZ0kRwfVffA-13" target="su87Lg4oOUZ0kRwfVffA-25" edge="1">
          <mxGeometry width="50" height="50" relative="1" as="geometry">
            <mxPoint x="330" y="400" as="sourcePoint" />
            <mxPoint x="380" y="350" as="targetPoint" />
          </mxGeometry>
        </mxCell>
        <mxCell id="su87Lg4oOUZ0kRwfVffA-36" value="" style="endArrow=none;html=1;rounded=0;exitX=0;exitY=0.5;exitDx=0;exitDy=0;entryX=0.75;entryY=0;entryDx=0;entryDy=0;" parent="1" source="su87Lg4oOUZ0kRwfVffA-12" target="su87Lg4oOUZ0kRwfVffA-9" edge="1">
          <mxGeometry width="50" height="50" relative="1" as="geometry">
            <mxPoint x="540" y="280" as="sourcePoint" />
            <mxPoint x="590" y="230" as="targetPoint" />
          </mxGeometry>
        </mxCell>
        <mxCell id="su87Lg4oOUZ0kRwfVffA-37" value="" style="endArrow=none;html=1;rounded=0;entryX=0.75;entryY=0;entryDx=0;entryDy=0;exitX=0;exitY=1;exitDx=0;exitDy=0;" parent="1" source="su87Lg4oOUZ0kRwfVffA-12" target="su87Lg4oOUZ0kRwfVffA-8" edge="1">
          <mxGeometry width="50" height="50" relative="1" as="geometry">
            <mxPoint x="510" y="340" as="sourcePoint" />
            <mxPoint x="560" y="290" as="targetPoint" />
          </mxGeometry>
        </mxCell>
        <mxCell id="su87Lg4oOUZ0kRwfVffA-38" value="" style="endArrow=none;html=1;rounded=0;entryX=0;entryY=0.5;entryDx=0;entryDy=0;exitX=1;exitY=0.5;exitDx=0;exitDy=0;" parent="1" source="su87Lg4oOUZ0kRwfVffA-13" target="su87Lg4oOUZ0kRwfVffA-6" edge="1">
          <mxGeometry width="50" height="50" relative="1" as="geometry">
            <mxPoint x="480" y="470" as="sourcePoint" />
            <mxPoint x="530" y="420" as="targetPoint" />
          </mxGeometry>
        </mxCell>
        <mxCell id="su87Lg4oOUZ0kRwfVffA-39" value="" style="endArrow=none;html=1;rounded=0;entryX=0.75;entryY=1;entryDx=0;entryDy=0;exitX=0;exitY=0;exitDx=0;exitDy=0;" parent="1" source="su87Lg4oOUZ0kRwfVffA-14" target="su87Lg4oOUZ0kRwfVffA-9" edge="1">
          <mxGeometry width="50" height="50" relative="1" as="geometry">
            <mxPoint x="310" y="390" as="sourcePoint" />
            <mxPoint x="530" y="375" as="targetPoint" />
          </mxGeometry>
        </mxCell>
        <mxCell id="su87Lg4oOUZ0kRwfVffA-40" value="" style="endArrow=none;html=1;rounded=0;entryX=1;entryY=0.75;entryDx=0;entryDy=0;exitX=0;exitY=0.619;exitDx=0;exitDy=0;exitPerimeter=0;" parent="1" source="su87Lg4oOUZ0kRwfVffA-14" target="su87Lg4oOUZ0kRwfVffA-8" edge="1">
          <mxGeometry width="50" height="50" relative="1" as="geometry">
            <mxPoint x="510" y="410" as="sourcePoint" />
            <mxPoint x="475" y="360" as="targetPoint" />
          </mxGeometry>
        </mxCell>
        <mxCell id="su87Lg4oOUZ0kRwfVffA-45" value="" style="endArrow=none;html=1;rounded=0;entryX=0.5;entryY=0;entryDx=0;entryDy=0;" parent="1" target="su87Lg4oOUZ0kRwfVffA-13" edge="1">
          <mxGeometry width="50" height="50" relative="1" as="geometry">
            <mxPoint x="100" y="205" as="sourcePoint" />
            <mxPoint x="150" y="155" as="targetPoint" />
          </mxGeometry>
        </mxCell>
        <mxCell id="su87Lg4oOUZ0kRwfVffA-46" value="" style="endArrow=none;html=1;rounded=0;" parent="1" target="su87Lg4oOUZ0kRwfVffA-12" edge="1">
          <mxGeometry width="50" height="50" relative="1" as="geometry">
            <mxPoint x="100" y="220" as="sourcePoint" />
            <mxPoint x="150" y="170" as="targetPoint" />
            <Array as="points" />
          </mxGeometry>
        </mxCell>
        <mxCell id="su87Lg4oOUZ0kRwfVffA-48" value="하차 알림" style="ellipse;whiteSpace=wrap;html=1;" parent="1" vertex="1">
          <mxGeometry x="410" y="380" width="110" height="50" as="geometry" />
        </mxCell>
        <mxCell id="su87Lg4oOUZ0kRwfVffA-49" value="" style="endArrow=open;html=1;rounded=0;exitX=0;exitY=0.5;exitDx=0;exitDy=0;entryX=1;entryY=0.5;entryDx=0;entryDy=0;dashed=1;endFill=0;" parent="1" source="su87Lg4oOUZ0kRwfVffA-48" target="su87Lg4oOUZ0kRwfVffA-14" edge="1">
          <mxGeometry width="50" height="50" relative="1" as="geometry">
            <mxPoint x="364" y="380" as="sourcePoint" />
            <mxPoint x="414" y="330" as="targetPoint" />
          </mxGeometry>
        </mxCell>
        <mxCell id="su87Lg4oOUZ0kRwfVffA-50" value="&lt;&lt;extend&gt;&gt;" style="text;align=center;fontStyle=0;verticalAlign=middle;spacingLeft=3;spacingRight=3;strokeColor=none;rotatable=0;points=[[0,0.5],[1,0.5]];portConstraint=eastwest;fontSize=11;" parent="1" vertex="1">
          <mxGeometry x="350" y="380" width="60" height="10" as="geometry" />
        </mxCell>
        <mxCell id="su87Lg4oOUZ0kRwfVffA-51" value="Where? now" style="text;align=center;fontStyle=1;verticalAlign=middle;spacingLeft=3;spacingRight=3;strokeColor=none;rotatable=0;points=[[0,0.5],[1,0.5]];portConstraint=eastwest;fontSize=11;" parent="1" vertex="1">
          <mxGeometry x="320" y="110" width="80" height="26" as="geometry" />
        </mxCell>
        <mxCell id="su87Lg4oOUZ0kRwfVffA-52" value="" style="endArrow=none;html=1;rounded=0;fontSize=11;exitX=0.027;exitY=0.368;exitDx=0;exitDy=0;exitPerimeter=0;entryX=0.976;entryY=0.359;entryDx=0;entryDy=0;entryPerimeter=0;" parent="1" source="su87Lg4oOUZ0kRwfVffA-14" target="su87Lg4oOUZ0kRwfVffA-14" edge="1">
          <mxGeometry width="50" height="50" relative="1" as="geometry">
            <mxPoint x="360" y="330" as="sourcePoint" />
            <mxPoint x="340" y="394" as="targetPoint" />
          </mxGeometry>
        </mxCell>
        <mxCell id="su87Lg4oOUZ0kRwfVffA-53" value="길 찾기 안내" style="text;align=center;fontStyle=0;verticalAlign=middle;spacingLeft=3;spacingRight=3;strokeColor=none;rotatable=0;points=[[0,0.5],[1,0.5]];portConstraint=eastwest;fontSize=11;" parent="1" vertex="1">
          <mxGeometry x="235" y="372" width="80" height="26" as="geometry" />
        </mxCell>
        <mxCell id="su87Lg4oOUZ0kRwfVffA-54" value="확장 포인트" style="text;align=center;fontStyle=1;verticalAlign=middle;spacingLeft=3;spacingRight=3;strokeColor=none;rotatable=0;points=[[0,0.5],[1,0.5]];portConstraint=eastwest;fontSize=11;" parent="1" vertex="1">
          <mxGeometry x="235" y="390" width="80" height="26" as="geometry" />
        </mxCell>
        <mxCell id="su87Lg4oOUZ0kRwfVffA-56" value="하차 알림 선택" style="text;align=center;fontStyle=0;verticalAlign=middle;spacingLeft=3;spacingRight=3;strokeColor=none;rotatable=0;points=[[0,0.5],[1,0.5]];portConstraint=eastwest;fontSize=11;" parent="1" vertex="1">
          <mxGeometry x="235" y="404" width="80" height="26" as="geometry" />
        </mxCell>
        <mxCell id="3MOA6gWwPqzXNkUbaylv-2" value="" style="endArrow=none;html=1;rounded=0;entryX=1;entryY=0.25;entryDx=0;entryDy=0;exitX=0;exitY=0.5;exitDx=0;exitDy=0;" parent="1" source="su87Lg4oOUZ0kRwfVffA-13" target="su87Lg4oOUZ0kRwfVffA-8" edge="1">
          <mxGeometry width="50" height="50" relative="1" as="geometry">
            <mxPoint x="390" y="410" as="sourcePoint" />
            <mxPoint x="440" y="360" as="targetPoint" />
          </mxGeometry>
        </mxCell>
      </root>
    </mxGraphModel>
  </diagram>
</mxfile>
